<svg width="76" height="76" viewBox="0 0 76 76" fill="none" xmlns="http://www.w3.org/2000/svg">
<g filter="url(#filter0_b_2_468)">
<rect width="76" height="76" rx="19" fill="url(#paint0_linear_2_468)"/>
</g>
<path d="M51.2104 44.5972C51.2009 44.5074 51.1739 44.4203 51.1308 44.3409C51.0877 44.2615 51.0294 44.1914 50.9592 44.1346C50.889 44.0777 50.8083 44.0353 50.7217 44.0096C50.6351 43.9839 50.5443 43.9756 50.4545 43.985C50.3646 43.9945 50.2775 44.0215 50.1982 44.0646C50.1188 44.1077 50.0487 44.166 49.9918 44.2362C49.877 44.3779 49.8232 44.5595 49.8422 44.7409C50.0533 46.8124 50.1812 49.4462 48.8076 51.2034C44.3821 58.097 26.6453 57.5257 26.0376 47.5824C25.8939 36.6016 32.1604 32.8547 35.9087 31.598C40.5266 30.0711 47.6581 34.3906 49.4029 42.0755C49.4444 42.2531 49.5548 42.4069 49.7097 42.5032C49.8646 42.5994 50.0514 42.6302 50.229 42.5887C50.4066 42.5472 50.5604 42.4369 50.6567 42.282C50.7529 42.1271 50.7837 41.9403 50.7422 41.7627C50.3018 39.6044 49.3993 37.567 48.0966 35.7907C46.794 34.0143 45.1223 32.5411 43.1962 31.4722C44.1984 30.8182 45.0526 29.9617 45.7038 28.9578C46.3551 27.9538 46.7889 26.8246 46.9774 25.6429C47.5714 22.7217 45.5028 21.0483 43.0999 21.1067C43.0965 20.7904 43.0768 20.4744 43.0408 20.1601C42.9951 19.8606 42.8682 19.5795 42.6739 19.3471C42.4796 19.1148 42.2253 18.9401 41.9387 18.8422C41.6521 18.7443 41.3441 18.7267 41.0483 18.7916C40.7524 18.8564 40.48 19.0011 40.2606 19.2099C40.0761 19.3708 39.8738 19.5099 39.6576 19.6245C39.1421 19.9114 38.5629 20.0647 37.973 20.0704C37.383 20.0762 36.801 19.9342 36.2799 19.6575C36.0687 19.5475 35.8744 19.4077 35.7031 19.2422C35.4867 19.0369 35.2171 18.8963 34.9249 18.8364C34.6326 18.7765 34.3294 18.7997 34.0497 18.9033C33.0996 19.2223 32.8754 20.2006 32.9167 21.1067C30.5524 21.0449 28.4445 22.7066 29.0309 25.5837C29.2126 26.773 29.6424 27.9108 30.2923 28.9232C30.9422 29.9356 31.7977 30.8001 32.8033 31.4605C28.9395 33.5773 24.5381 38.0791 24.6633 47.6002C24.9114 53.3704 30.375 57.14 38.3885 57.2424C45.005 56.9441 48.3119 54.2312 49.922 52.0078C51.5136 49.9756 51.4751 47.0214 51.2104 44.5972ZM45.6141 25.4765C45.6024 25.6085 45.2924 28.6699 41.7586 30.7661C41.2835 30.5561 40.7955 30.3763 40.2977 30.2278C41.7084 27.8498 42.6377 25.2176 43.0326 22.4811C44.7362 22.4481 46.0534 23.3246 45.6141 25.4765ZM30.3949 25.4201C29.9618 23.3253 31.3183 22.4336 32.9854 22.4804C33.1078 23.1266 32.993 24.4879 34.0036 24.3387C34.092 24.32 34.1758 24.284 34.2502 24.2329C34.3247 24.1818 34.3884 24.1165 34.4376 24.0408C34.4868 23.9651 34.5206 23.8804 34.5371 23.7916C34.5536 23.7028 34.5524 23.6116 34.5337 23.5233C34.3147 22.5039 34.2463 21.4578 34.3309 20.4186C34.3383 20.368 34.3595 20.3205 34.3923 20.2813C34.4251 20.2421 34.4681 20.2127 34.5165 20.1965C34.5552 20.1796 34.5979 20.1743 34.6396 20.181C34.6813 20.1877 34.7202 20.2062 34.7516 20.2343C35.5023 20.9008 36.4422 21.3165 37.4404 21.4232C38.4385 21.5299 39.4451 21.3224 40.3197 20.8297C40.6316 20.6626 40.923 20.4598 41.188 20.2254C41.9724 19.6678 41.6768 21.5124 41.694 21.9235C41.5737 24.2342 40.5871 26.9202 38.8849 29.9397C38.3007 29.875 37.7112 29.8745 37.1269 29.9384C36.4289 28.7315 35.8256 27.4724 35.3223 26.1722C35.2563 26.0036 35.1265 25.8677 34.9609 25.7942C34.7954 25.7207 34.6076 25.7155 34.4382 25.7797C34.2688 25.8439 34.1317 25.9723 34.0565 26.1371C33.9813 26.3019 33.9742 26.4897 34.0366 26.6597C34.5099 27.8861 35.0693 29.0775 35.7107 30.2251C35.2122 30.3735 34.7231 30.5521 34.2463 30.7599C30.7222 28.6637 30.4128 25.6078 30.3949 25.4201Z" fill="white"/>
<path d="M37.9961 47.436C37.8154 47.4353 37.6416 47.3665 37.5094 47.2434C37.3771 47.1204 37.2961 46.952 37.2825 46.7718C37.2667 46.5911 37.1814 46.4236 37.0446 46.3044C36.9078 46.1853 36.7301 46.1239 36.5489 46.1331C35.1093 46.4425 36.3805 48.5009 37.3086 48.6865C37.3189 48.8593 37.3945 49.0216 37.5202 49.1405C37.6459 49.2594 37.8122 49.326 37.9853 49.3267C38.1583 49.3274 38.3251 49.2622 38.4518 49.1443C38.5784 49.0264 38.6554 48.8647 38.6671 48.692C38.9687 48.5927 39.2434 48.4255 39.4701 48.2032C39.7585 47.9098 39.9545 47.5381 40.0336 47.1343C40.1127 46.7305 40.0715 46.3124 39.9151 45.9318C39.7587 45.5512 39.494 45.2249 39.1538 44.9934C38.8137 44.7619 38.413 44.6354 38.0016 44.6296C37.8634 44.6289 37.7284 44.5883 37.6129 44.5126C37.4973 44.4369 37.4061 44.3294 37.3503 44.203C37.2945 44.0766 37.2764 43.9368 37.2983 43.8004C37.3203 43.664 37.3812 43.5369 37.4737 43.4343C37.5663 43.3318 37.6866 43.2582 37.8201 43.2225C37.9535 43.1868 38.0945 43.1905 38.2259 43.2332C38.3573 43.2758 38.4735 43.3555 38.5606 43.4628C38.6477 43.5701 38.7018 43.7002 38.7166 43.8376C38.7251 43.9277 38.7516 44.0152 38.7944 44.095C38.8372 44.1748 38.8955 44.2453 38.9658 44.3022C39.0362 44.3592 39.1172 44.4016 39.2041 44.4269C39.2911 44.4522 39.3822 44.4598 39.4721 44.4495C40.876 44.1002 39.5945 42.1257 38.687 41.9435C38.6773 41.7698 38.6013 41.6063 38.4748 41.4868C38.3483 41.3673 38.1808 41.3008 38.0068 41.301C37.8327 41.3012 37.6654 41.368 37.5391 41.4878C37.4128 41.6075 37.3372 41.7711 37.3278 41.9449C36.9958 42.0621 36.6985 42.261 36.4635 42.5232C36.2284 42.7854 36.0631 43.1025 35.9828 43.4454C35.9025 43.7883 35.9097 44.1458 36.0038 44.4852C36.0979 44.8245 36.2759 45.1347 36.5214 45.3872C36.7144 45.5828 36.9443 45.7381 37.1978 45.8441C37.4513 45.9501 37.7234 46.0047 37.9981 46.0046C38.188 46.0049 38.3699 46.0805 38.5039 46.2149C38.6379 46.3493 38.7131 46.5315 38.7128 46.7213C38.7125 46.9111 38.6369 47.093 38.5025 47.2271C38.368 47.3611 38.1859 47.4362 37.9961 47.436Z" fill="white"/>
<path d="M32.2848 46.8329C32.2427 46.6583 32.1339 46.5071 31.9817 46.4117C31.8296 46.3162 31.6461 46.2841 31.4706 46.3222C31.2951 46.3603 31.1415 46.4655 31.0426 46.6154C30.9436 46.7654 30.9073 46.948 30.9414 47.1244C31.2955 48.7181 32.1809 50.144 33.4523 51.1682C34.7237 52.1923 36.3055 52.7538 37.9381 52.7605C45.6958 52.6464 47.8346 42.1991 40.7774 39.0394V37.6424C40.7705 37.3798 40.7069 37.1218 40.591 36.8861C40.4751 36.6504 40.3096 36.4425 40.1059 36.2767C39.9022 36.1109 39.6651 35.991 39.4108 35.9253C39.1565 35.8596 38.891 35.8497 38.6324 35.8961C38.596 35.7123 38.5982 35.5229 38.6388 35.34C38.6795 35.157 38.7578 34.9846 38.8686 34.8335C38.9795 34.6824 39.1206 34.5561 39.283 34.4624C39.4453 34.3688 39.6253 34.31 39.8116 34.2896C39.9979 34.2693 40.1864 34.2879 40.3651 34.3443C40.5438 34.4007 40.7088 34.4937 40.8497 34.6173C40.9906 34.7409 41.1042 34.8924 41.1834 35.0623C41.2625 35.2321 41.3055 35.4166 41.3096 35.6039C41.3105 36.2737 41.577 36.9159 42.0506 37.3895C42.5242 37.8631 43.1663 38.1296 43.8361 38.1305C43.9413 38.1582 44.0514 38.1613 44.158 38.1397C44.2646 38.1181 44.3649 38.0724 44.451 38.006C44.5371 37.9396 44.6069 37.8543 44.6549 37.7567C44.7028 37.6591 44.7278 37.5518 44.7278 37.443C44.7278 37.3342 44.7028 37.2269 44.6549 37.1293C44.6069 37.0317 44.5371 36.9464 44.451 36.88C44.3649 36.8136 44.2646 36.7679 44.158 36.7463C44.0514 36.7247 43.9413 36.7278 43.8361 36.7555C43.5309 36.755 43.2383 36.6335 43.0225 36.4176C42.8066 36.2018 42.6851 35.9092 42.6846 35.6039C42.6838 34.8846 42.3978 34.1949 41.8892 33.6862C41.3806 33.1775 40.691 32.8913 39.9717 32.8904C39.591 32.8935 39.215 32.9756 38.8677 33.1317C38.5205 33.2877 38.2094 33.5142 37.9542 33.7968C37.6991 34.0794 37.5055 34.412 37.3857 34.7733C37.2658 35.1347 37.2224 35.5171 37.2581 35.8961C36.9982 35.8471 36.7307 35.855 36.4742 35.9195C36.2176 35.9839 35.9781 36.1032 35.7722 36.2693C35.5662 36.4353 35.3988 36.6441 35.2815 36.8812C35.1641 37.1182 35.0997 37.378 35.0925 37.6424V39.0538C34.0523 39.5047 33.1337 40.1957 32.4121 41.0701C31.6904 41.9445 31.1862 42.9774 30.9407 44.0843C30.9023 44.2626 30.9363 44.4488 31.0353 44.6021C31.1343 44.7553 31.29 44.863 31.4683 44.9013C31.6467 44.9397 31.8329 44.9057 31.9862 44.8067C32.1394 44.7078 32.2471 44.552 32.2854 44.3737C32.5899 42.9805 33.3984 41.7489 34.5556 40.9154C35.7127 40.0819 37.137 39.7053 38.5549 39.8579C39.9728 40.0105 41.2844 40.6815 42.2377 41.7422C43.191 42.8028 43.7189 44.1782 43.7199 45.6043C43.5378 52.5171 33.9368 53.5298 32.2848 46.8329ZM36.4668 38.6049V37.6424C36.4679 37.5429 36.5084 37.448 36.5794 37.3784C36.6505 37.3088 36.7462 37.2702 36.8456 37.2711H39.0236C39.1229 37.2704 39.2185 37.3091 39.2894 37.3786C39.3603 37.4482 39.4007 37.5431 39.4018 37.6424V38.6069C38.4341 38.4054 37.4352 38.4054 36.4675 38.6069L36.4668 38.6049Z" fill="white"/>
<path d="M45.8157 40.4495C45.9881 40.4043 46.1363 40.294 46.2289 40.1418C46.3216 39.9895 46.3515 39.8072 46.3123 39.6334C46.2732 39.4595 46.1681 39.3076 46.0191 39.2098C45.8702 39.1119 45.689 39.0757 45.5139 39.1088C45.1424 39.1844 44.7561 39.1216 44.4277 38.9321C44.2761 38.8306 44.0905 38.7934 43.9115 38.8287C43.7326 38.864 43.575 38.969 43.4734 39.1205C43.3718 39.272 43.3346 39.4577 43.37 39.6367C43.4053 39.8156 43.5103 39.9732 43.6618 40.0748C44.1229 40.364 44.6561 40.5177 45.2004 40.5182C45.4074 40.5181 45.6138 40.495 45.8157 40.4495Z" fill="white"/>
<defs>
<filter id="filter0_b_2_468" x="-35" y="-35" width="146" height="146" filterUnits="userSpaceOnUse" color-interpolation-filters="sRGB">
<feFlood flood-opacity="0" result="BackgroundImageFix"/>
<feGaussianBlur in="BackgroundImageFix" stdDeviation="17.5"/>
<feComposite in2="SourceAlpha" operator="in" result="effect1_backgroundBlur_2_468"/>
<feBlend mode="normal" in="SourceGraphic" in2="effect1_backgroundBlur_2_468" result="shape"/>
</filter>
<linearGradient id="paint0_linear_2_468" x1="38" y1="76" x2="38" y2="0" gradientUnits="userSpaceOnUse">
<stop stop-color="#FF7A00"/>
<stop offset="1" stop-color="#9A3232"/>
</linearGradient>
</defs>
</svg>
