 <svg
    width="22"
    height="22"
    viewBox="0 0 22 22"
    fill="none"
    xmlns="http://www.w3.org/2000/svg"
  >
    <path
      d="M21.6707 13.661C20.2014 19.5539 14.2322 23.1402 8.33802 21.6707C2.4462 20.2015 -1.14053 14.2327 0.329506 8.34018C1.79816 2.44665 7.76733 -1.14 13.6598 0.32917C19.5537 1.79834 23.1401 7.76785 21.6707 13.661Z"
      fill="#F7931A"
    />
    <path
      fill-rule="evenodd"
      clip-rule="evenodd"
      d="M16.0129 9.56296C16.2418 8.02184 15.0769 7.19338 13.484 6.6407L14.0007 4.55306L12.7392 4.23637L12.2361 6.269C11.9045 6.18575 11.5639 6.10721 11.2254 6.02939L11.732 3.98338L10.4712 3.66669L9.95415 5.7536C9.67963 5.69062 9.41015 5.62837 9.14857 5.56286L9.15001 5.55635L7.41021 5.11877L7.07462 6.47602C7.07462 6.47602 8.01063 6.6921 7.99086 6.70549C8.50181 6.83397 8.59415 7.17456 8.5787 7.44456L7.99015 9.82283C8.02536 9.83188 8.07099 9.84491 8.12129 9.86518L8.07855 9.85442L8.07852 9.85441C8.04927 9.84703 8.01895 9.83937 7.98799 9.83188L7.16301 13.1635C7.10049 13.3198 6.94203 13.5544 6.58487 13.4653C6.59745 13.4838 5.66791 13.2348 5.66791 13.2348L5.04163 14.6894L6.68333 15.1016C6.86666 15.1479 7.04779 15.1955 7.22704 15.2426C7.34639 15.2739 7.46491 15.3051 7.58268 15.3355L7.0606 17.447L8.32071 17.7637L8.83776 15.6746C9.18199 15.7687 9.51615 15.8556 9.84312 15.9373L9.32787 18.0167L10.5894 18.3334L11.1115 16.2258C13.2627 16.6359 14.8803 16.4705 15.5612 14.5106C16.1099 12.9326 15.5339 12.0223 14.4021 11.4287C15.2263 11.2373 15.8472 10.6911 16.0129 9.56296ZM13.1305 13.6344C12.7728 15.0821 10.5231 14.4836 9.49368 14.2097C9.40107 14.1851 9.31833 14.1631 9.24774 14.1454L9.94049 11.348C10.0264 11.3696 10.1315 11.3934 10.2504 11.4203C11.3151 11.6609 13.497 12.1541 13.1305 13.6344ZM10.4643 10.1221C11.3226 10.3528 13.1946 10.856 13.5207 9.54016C13.8537 8.19424 12.0342 7.78851 11.1456 7.59037C11.0457 7.56808 10.9575 7.54842 10.8855 7.53034L10.2574 10.0675C10.3167 10.0824 10.3864 10.1011 10.4643 10.1221Z"
      fill="white"
    />
  </svg>
