<svg width="76" height="76" viewBox="0 0 76 76" fill="none" xmlns="http://www.w3.org/2000/svg">
<g filter="url(#filter0_b_2_493)">
<rect width="76" height="76" rx="19" fill="url(#paint0_linear_2_493)"/>
</g>
<g clip-path="url(#clip0_2_493)">
<path d="M25.9251 35.9876H27.6751V34.8501H28.9001V35.9876H30.6501V34.8501H31.0001C32.9251 34.8501 34.4126 33.2751 34.4126 31.4376C34.4126 30.3001 33.8876 29.3376 33.0126 28.6376C33.5376 28.0251 33.8876 27.3251 33.8876 26.4501C33.8876 24.7001 32.4001 23.2126 30.6501 23.2126V22.1626H28.9001V23.3001H27.6751V22.1626H25.9251V23.3001H24.7876V34.8501H26.0126V35.9876H25.9251ZM26.5376 25.0501H30.6501C31.4376 25.0501 32.1376 25.7501 32.1376 26.5376C32.1376 27.3251 31.4376 28.0251 30.6501 28.0251H26.5376V25.0501ZM30.6501 29.7751H31.0001C31.9626 29.7751 32.6626 30.5626 32.6626 31.4376C32.6626 32.3126 31.8751 33.1001 31.0001 33.1001H26.5376V29.7751H30.6501Z" fill="white"/>
<path d="M29.075 40.3625C35.2875 40.3625 40.275 35.2875 40.275 29.1625C40.275 23.0375 35.2875 17.875 29.075 17.875C22.8625 17.875 17.875 22.95 17.875 29.075C17.875 35.2 22.95 40.3625 29.075 40.3625ZM29.075 19.625C34.325 19.625 38.525 23.9125 38.525 29.075C38.525 34.325 34.2375 38.525 29.075 38.525C23.9125 38.525 19.625 34.325 19.625 29.075C19.625 23.9125 23.9125 19.625 29.075 19.625ZM50.8625 46.4875C51.3875 45.875 51.7375 45.175 51.7375 44.3C51.7375 42.4625 50.25 41.0625 48.5 41.0625V39.925H46.75V41.0625H45.525V39.925H43.775V41.0625H42.55V52.7H43.775V53.8375H45.525V52.7H46.75V53.8375H48.5V52.7H48.85C50.775 52.7 52.2625 51.125 52.2625 49.2875C52.2625 48.15 51.65 47.1875 50.8625 46.4875ZM44.3 42.8125H48.4125C49.2 42.8125 49.9 43.5125 49.9 44.3C49.9 45.0875 49.2875 45.875 48.4125 45.875H44.3V42.8125ZM48.85 50.95H44.3875V47.625H48.85C49.8125 47.625 50.5125 48.4125 50.5125 49.2875C50.5125 50.25 49.725 50.95 48.85 50.95Z" fill="white"/>
<path d="M46.925 35.6375C40.7125 35.6375 35.725 40.7125 35.725 46.8375C35.725 52.9625 40.7125 58.125 46.925 58.125C53.1375 58.125 58.125 53.05 58.125 46.925C58.125 40.8 53.05 35.6375 46.925 35.6375ZM46.925 56.375C41.675 56.375 37.475 52.0875 37.475 46.925C37.475 41.675 41.7625 37.475 46.925 37.475C52.0875 37.475 56.375 41.675 56.375 46.925C56.375 52.0875 52.0875 56.375 46.925 56.375ZM52.9625 32.75L51.3875 31.175C51.0375 30.825 50.5125 30.825 50.1625 31.175C49.8125 31.525 49.8125 32.05 50.1625 32.4L54.0125 36.25L57.8625 32.4C58.2125 32.05 58.2125 31.525 57.8625 31.175C57.5125 30.825 56.9875 30.825 56.6375 31.175L54.7125 33.1C53.8375 26.45 48.15 21.375 41.2375 21.375V23.125C47.1 23.0375 51.9125 27.2375 52.9625 32.75ZM23.0375 43.25L24.6125 44.825C24.875 45 25.05 45.0875 25.3125 45.0875C25.575 45.0875 25.75 45 25.925 44.825C26.275 44.475 26.275 43.95 25.925 43.6L21.9875 39.75L18.1375 43.6C17.7875 43.95 17.7875 44.475 18.1375 44.825C18.4875 45.175 19.0125 45.175 19.3625 44.825L21.2875 42.9C22.1625 49.55 27.85 54.625 34.7625 54.625V52.875C28.9 52.9625 24.0875 48.7625 23.0375 43.25Z" fill="white"/>
</g>
<defs>
<filter id="filter0_b_2_493" x="-35" y="-35" width="146" height="146" filterUnits="userSpaceOnUse" color-interpolation-filters="sRGB">
<feFlood flood-opacity="0" result="BackgroundImageFix"/>
<feGaussianBlur in="BackgroundImageFix" stdDeviation="17.5"/>
<feComposite in2="SourceAlpha" operator="in" result="effect1_backgroundBlur_2_493"/>
<feBlend mode="normal" in="SourceGraphic" in2="effect1_backgroundBlur_2_493" result="shape"/>
</filter>
<linearGradient id="paint0_linear_2_493" x1="38" y1="0" x2="38" y2="76" gradientUnits="userSpaceOnUse">
<stop stop-color="#0047FF"/>
<stop offset="1" stop-color="#7C186C"/>
</linearGradient>
<clipPath id="clip0_2_493">
<rect width="42" height="42" fill="white" transform="translate(17 17)"/>
</clipPath>
</defs>
</svg>
