<svg width="76" height="76" viewBox="0 0 76 76" fill="none" xmlns="http://www.w3.org/2000/svg">
<g filter="url(#filter0_b_2_505)">
<path d="M0 19C0 8.50659 8.50659 0 19 0H57C67.4934 0 76 8.50659 76 19V57C76 67.4934 67.4934 76 57 76H19C8.50659 76 0 67.4934 0 57V19Z" fill="url(#paint0_linear_2_505)"/>
</g>
<path d="M45.3333 57.25H23.3333C22.1182 57.2485 20.9533 56.7652 20.094 55.906C19.2348 55.0467 18.7515 53.8818 18.75 52.6667V23.3333C18.7515 22.1182 19.2348 20.9533 20.094 20.094C20.9533 19.2348 22.1182 18.7515 23.3333 18.75H37.505C38.1154 18.7504 38.7196 18.8722 39.2825 19.1082C39.8454 19.3443 40.3558 19.6899 40.7839 20.125L48.6104 28.1358C49.4499 28.9928 49.919 30.1453 49.9167 31.345V38.1742C49.9167 38.4173 49.8201 38.6504 49.6482 38.8223C49.4763 38.9943 49.2431 39.0908 49 39.0908C48.7569 39.0908 48.5237 38.9943 48.3518 38.8223C48.1799 38.6504 48.0833 38.4173 48.0833 38.1742V31.345C48.0837 30.6254 47.802 29.9343 47.2987 29.42L39.4713 21.4083C39.2148 21.1471 38.9088 20.9396 38.5712 20.7979C38.2336 20.6563 37.8711 20.5833 37.505 20.5833H23.3333C22.604 20.5833 21.9045 20.8731 21.3888 21.3888C20.8731 21.9045 20.5833 22.604 20.5833 23.3333V52.6667C20.5833 53.396 20.8731 54.0955 21.3888 54.6112C21.9045 55.1269 22.604 55.4167 23.3333 55.4167H45.3333C45.6791 55.418 46.0218 55.351 46.3417 55.2196C46.5665 55.1271 46.819 55.1277 47.0434 55.2213C47.2678 55.3149 47.4459 55.4938 47.5384 55.7187C47.6309 55.9436 47.6303 56.196 47.5367 56.4204C47.4431 56.6449 47.2641 56.8229 47.0393 56.9154C46.498 57.1377 45.9184 57.2514 45.3333 57.25Z" fill="white"/>
<path d="M48.6243 30.6667H42.5835C41.3684 30.6652 40.2034 30.1819 39.3442 29.3226C38.485 28.4634 38.0016 27.2985 38.0002 26.0833V19.9508C38.0002 19.7077 38.0967 19.4746 38.2687 19.3027C38.4406 19.1308 38.6737 19.0342 38.9168 19.0342C39.16 19.0342 39.3931 19.1308 39.565 19.3027C39.7369 19.4746 39.8335 19.7077 39.8335 19.9508V26.0833C39.8335 26.8127 40.1232 27.5122 40.639 28.0279C41.1547 28.5436 41.8542 28.8333 42.5835 28.8333H48.6243C48.8674 28.8333 49.1006 28.9299 49.2725 29.1018C49.4444 29.2737 49.541 29.5069 49.541 29.75C49.541 29.9931 49.4444 30.2263 49.2725 30.3982C49.1006 30.5701 48.8674 30.6667 48.6243 30.6667ZM47.1668 57.1162C46.8053 57.1166 46.4519 57.0097 46.1512 56.8091L43.2068 54.8456C41.3219 53.5923 39.7763 51.892 38.7079 49.8965C37.6395 47.9009 37.0814 45.6719 37.0835 43.4083V41.839C37.0853 41.4266 37.2255 41.0267 37.4816 40.7034C37.7377 40.3801 38.095 40.1522 38.4961 40.0561C41.2185 39.3036 43.8084 38.1351 46.1741 36.592C46.4701 36.4014 46.8147 36.3 47.1668 36.3C47.5189 36.3 47.8636 36.4014 48.1596 36.592C50.5252 38.1353 53.1151 39.3038 55.8376 40.0561C56.2387 40.1522 56.5959 40.3801 56.852 40.7034C57.1082 41.0267 57.2484 41.4266 57.2502 41.839V43.4083C57.2528 45.6726 56.6951 47.9022 55.6266 49.8985C54.5582 51.8948 53.0123 53.5956 51.1268 54.8493L48.1834 56.8118C47.8821 57.0116 47.5283 57.1176 47.1668 57.1162ZM47.1668 38.132C44.6324 39.7854 41.8567 41.0353 38.9388 41.8372L38.9168 43.4083C38.9146 45.3706 39.398 47.303 40.3239 49.0331C41.2498 50.7632 42.5895 52.2373 44.2234 53.3239L47.1668 55.2828L50.1102 53.3203C51.7437 52.234 53.083 50.7605 54.0089 49.031C54.9348 47.3016 55.4185 45.37 55.4168 43.4083V41.839C52.4918 41.0376 49.7087 39.7874 47.1668 38.1329V38.132Z" fill="white"/>
<path d="M46.25 48.9999C46.0069 48.9999 45.7738 48.9033 45.6019 48.7313L43.7686 46.898C43.6016 46.7251 43.5092 46.4936 43.5113 46.2532C43.5134 46.0129 43.6098 45.783 43.7797 45.613C43.9497 45.443 44.1796 45.3466 44.42 45.3446C44.6603 45.3425 44.8919 45.4349 45.0647 45.6018L46.25 46.7871L49.2686 43.7685C49.4415 43.6015 49.673 43.5091 49.9134 43.5112C50.1537 43.5133 50.3836 43.6097 50.5536 43.7797C50.7235 43.9496 50.8199 44.1795 50.822 44.4199C50.8241 44.6602 50.7317 44.8918 50.5647 45.0647L46.8981 48.7313C46.7262 48.9033 46.4931 48.9999 46.25 48.9999ZM32.5 27.9166H25.1667C24.9236 27.9166 24.6904 27.82 24.5185 27.6481C24.3466 27.4762 24.25 27.243 24.25 26.9999C24.25 26.7568 24.3466 26.5236 24.5185 26.3517C24.6904 26.1798 24.9236 26.0833 25.1667 26.0833H32.5C32.7431 26.0833 32.9763 26.1798 33.1482 26.3517C33.3201 26.5236 33.4167 26.7568 33.4167 26.9999C33.4167 27.243 33.3201 27.4762 33.1482 27.6481C32.9763 27.82 32.7431 27.9166 32.5 27.9166ZM38 33.4166H25.1667C24.9236 33.4166 24.6904 33.32 24.5185 33.1481C24.3466 32.9762 24.25 32.743 24.25 32.4999C24.25 32.2568 24.3466 32.0236 24.5185 31.8517C24.6904 31.6798 24.9236 31.5833 25.1667 31.5833H38C38.2431 31.5833 38.4763 31.6798 38.6482 31.8517C38.8201 32.0236 38.9167 32.2568 38.9167 32.4999C38.9167 32.743 38.8201 32.9762 38.6482 33.1481C38.4763 33.32 38.2431 33.4166 38 33.4166ZM39.8333 38.9166H25.1667C24.9236 38.9166 24.6904 38.82 24.5185 38.6481C24.3466 38.4762 24.25 38.243 24.25 37.9999C24.25 37.7568 24.3466 37.5236 24.5185 37.3517C24.6904 37.1798 24.9236 37.0833 25.1667 37.0833H39.8333C40.0764 37.0833 40.3096 37.1798 40.4815 37.3517C40.6534 37.5236 40.75 37.7568 40.75 37.9999C40.75 38.243 40.6534 38.4762 40.4815 38.6481C40.3096 38.82 40.0764 38.9166 39.8333 38.9166ZM34.3333 44.4166H25.1667C24.9236 44.4166 24.6904 44.32 24.5185 44.1481C24.3466 43.9762 24.25 43.743 24.25 43.4999C24.25 43.2568 24.3466 43.0236 24.5185 42.8517C24.6904 42.6798 24.9236 42.5833 25.1667 42.5833H34.3333C34.5764 42.5833 34.8096 42.6798 34.9815 42.8517C35.1534 43.0236 35.25 43.2568 35.25 43.4999C35.25 43.743 35.1534 43.9762 34.9815 44.1481C34.8096 44.32 34.5764 44.4166 34.3333 44.4166ZM34.3333 49.9166H25.1667C24.9236 49.9166 24.6904 49.82 24.5185 49.6481C24.3466 49.4762 24.25 49.243 24.25 48.9999C24.25 48.7568 24.3466 48.5236 24.5185 48.3517C24.6904 48.1798 24.9236 48.0833 25.1667 48.0833H34.3333C34.5764 48.0833 34.8096 48.1798 34.9815 48.3517C35.1534 48.5236 35.25 48.7568 35.25 48.9999C35.25 49.243 35.1534 49.4762 34.9815 49.6481C34.8096 49.82 34.5764 49.9166 34.3333 49.9166Z" fill="white"/>
<defs>
<filter id="filter0_b_2_505" x="-35" y="-35" width="146" height="146" filterUnits="userSpaceOnUse" color-interpolation-filters="sRGB">
<feFlood flood-opacity="0" result="BackgroundImageFix"/>
<feGaussianBlur in="BackgroundImageFix" stdDeviation="17.5"/>
<feComposite in2="SourceAlpha" operator="in" result="effect1_backgroundBlur_2_505"/>
<feBlend mode="normal" in="SourceGraphic" in2="effect1_backgroundBlur_2_505" result="shape"/>
</filter>
<linearGradient id="paint0_linear_2_505" x1="38" y1="0" x2="38" y2="76" gradientUnits="userSpaceOnUse">
<stop stop-color="#0047FF"/>
<stop offset="1" stop-color="#7C186C"/>
</linearGradient>
</defs>
</svg>
