<svg width="76" height="76" viewBox="0 0 76 76" fill="none" xmlns="http://www.w3.org/2000/svg">
<g filter="url(#filter0_b_2_481)">
<path d="M0 19C0 8.50659 8.50659 0 19 0H57C67.4934 0 76 8.50659 76 19V57C76 67.4934 67.4934 76 57 76H19C8.50659 76 0 67.4934 0 57V19Z" fill="url(#paint0_linear_2_481)"/>
</g>
<g clip-path="url(#clip0_2_481)">
<path d="M56.8575 44.2846H58.4288V45.856H56.8575V44.2846ZM58.4288 34.9944C58.4288 33.8171 58.2723 32.6443 57.9638 31.5076L56.4473 31.9197C56.7192 32.922 56.8571 33.9559 56.8575 34.9944V42.7132H58.4288V34.9944ZM30.1441 34.9944C30.1479 32.2599 31.0995 29.6112 32.8369 27.4994L31.6234 26.5C29.6551 28.8937 28.5771 31.8955 28.5728 34.9944V37.9991H30.1441V34.9944Z" fill="white"/>
<path d="M48.901 16.8643C48.6919 16.5943 48.4235 16.3759 48.1166 16.2261C47.8098 16.0762 47.4726 15.9989 47.131 16C46.645 16.0013 46.1723 16.1588 45.7826 16.4492L43.5009 18.1606L41.2224 16.4492C40.8322 16.1577 40.3582 16.0001 39.8711 16C39.5298 16.0001 39.193 16.078 38.8863 16.2277C38.5796 16.3775 38.3111 16.5951 38.1011 16.8641C37.8911 17.1332 37.7451 17.4465 37.6743 17.7804C37.6035 18.1142 37.6097 18.4598 37.6924 18.791L38.5663 22.2855H38.0012C37.7928 22.2855 37.5929 22.3683 37.4456 22.5156C37.2983 22.663 37.2155 22.8628 37.2155 23.0712V25.81L35.9978 26.6854C34.6742 27.6304 33.5952 28.8776 32.8504 30.3234C32.1057 31.7691 31.7167 33.3717 31.7157 34.998V45.9646C31.0726 45.8937 30.4261 45.8575 29.7791 45.8561H27.7872C27.7872 45.6477 27.7045 45.4479 27.5571 45.3005C27.4098 45.1532 27.2099 45.0704 27.0016 45.0704H16.002V46.6418H26.2159V56.07H16.002V57.6414H27.0016C27.2099 57.6414 27.4098 57.5586 27.5571 57.4113C27.7045 57.2639 27.7872 57.0641 27.7872 56.8557V56.5564L33.653 58.9921C36.851 60.297 40.4258 60.3363 43.6517 59.1019L55.7884 54.4745C56.1444 54.3392 56.4697 54.1342 56.7454 53.8715C57.021 53.6088 57.2414 53.2936 57.3936 52.9445C57.5512 52.5906 57.6366 52.2087 57.6445 51.8213C57.6525 51.434 57.583 51.0489 57.44 50.6887C57.2432 50.1711 56.8981 49.7229 56.448 49.4002C55.9978 49.0776 55.4626 48.8947 54.9091 48.8745C55.1547 48.1555 55.2821 47.4015 55.2863 46.6418V34.998C55.2855 33.3719 54.8967 31.7694 54.1523 30.3236C53.4079 28.8779 52.3293 27.6306 51.006 26.6854L49.7865 25.81V23.0712C49.7865 22.8628 49.7037 22.663 49.5563 22.5156C49.409 22.3683 49.2092 22.2855 49.0008 22.2855H48.4361L49.3096 18.791C49.3933 18.46 49.4 18.1142 49.3292 17.7802C49.2583 17.4462 49.1119 17.1328 48.901 16.8643ZM48.2151 25.4282H38.7869V23.8569H48.2151V25.4282ZM55.9768 51.2657C56.0432 51.4324 56.0756 51.6108 56.072 51.7902C56.0683 51.9696 56.0288 52.1465 55.9557 52.3104C55.8872 52.4691 55.7876 52.6124 55.6628 52.732C55.538 52.8516 55.3905 52.945 55.2291 53.0067L43.0916 57.6344C40.2396 58.7265 37.0788 58.6923 34.2511 57.5386L27.7872 54.8539V47.4275H29.7791C32.3844 47.4309 34.9536 48.0375 37.2853 49.1999C38.0551 49.5835 38.9034 49.7837 39.7636 49.7845H45.858C46.1467 49.7862 46.4248 49.8938 46.6394 50.0869C46.8541 50.28 46.9903 50.5452 47.0224 50.8321C47.0545 51.119 46.9801 51.4078 46.8134 51.6435C46.6467 51.8792 46.3993 52.0456 46.1181 52.1109C46.0153 52.1205 45.9136 52.1416 45.8093 52.1416H36.4298V53.713H45.858C45.8737 53.713 45.8887 53.7083 45.9052 53.7083C46.5287 53.6981 47.1444 53.5678 47.7186 53.3247L54.2869 50.5356C54.4419 50.4692 54.6088 50.4349 54.7775 50.4349C54.9462 50.4349 55.1131 50.4692 55.2682 50.5356C55.4294 50.6033 55.5753 50.7028 55.6971 50.8283C55.8189 50.9537 55.914 51.1025 55.9768 51.2657ZM53.7149 34.9981V46.6418C53.7122 47.6086 53.4533 48.5575 52.9646 49.3917L48.5788 51.2538C48.5937 51.1575 48.6037 51.0605 48.6079 50.9631C48.6079 49.4442 47.3769 48.2132 45.858 48.2132H39.7636C39.1472 48.2123 38.5394 48.0689 37.9877 47.7942C36.4997 47.0545 34.9185 46.5196 33.2871 46.2041V34.998C33.2874 33.6214 33.6164 32.2648 34.2466 31.0409C34.8768 29.817 35.7901 28.7613 36.9104 27.9614L38.2532 26.9996H48.7487L50.093 27.9621C51.213 28.7621 52.1259 29.8178 52.7558 31.0415C53.3858 32.2652 53.7146 33.6216 53.7149 34.998V34.9981ZM40.1864 22.2855L39.2165 18.4096C39.1912 18.3103 39.1889 18.2066 39.2097 18.1063C39.2306 18.0059 39.2741 17.9117 39.3369 17.8308C39.4484 17.6935 39.6082 17.6041 39.7835 17.581C39.9588 17.5578 40.1363 17.6027 40.2796 17.7064L43.0295 19.7711C43.1654 19.8733 43.3309 19.9285 43.501 19.9285C43.671 19.9285 43.8365 19.8733 43.9725 19.7711L46.7224 17.7064C46.8656 17.6028 47.0431 17.5579 47.2184 17.581C47.3937 17.6041 47.5535 17.6935 47.6649 17.8308C47.7283 17.9114 47.7725 18.0055 47.7939 18.1058C47.8153 18.2062 47.8134 18.3101 47.7885 18.4096L46.816 22.2855H40.1864Z" fill="white"/>
<path d="M23.0728 52.9274H24.6441V54.4987H23.0728V52.9274ZM46.908 37.6333C47.1443 37.3082 47.3057 36.9349 47.3808 36.54C47.4559 36.1452 47.4427 35.7387 47.3423 35.3496C47.242 34.9604 47.0569 34.5983 46.8003 34.2891C46.5436 33.9799 46.2217 33.7313 45.8577 33.5611V32.4995H44.2863V33.2852H42.7149V32.4995H41.1435V33.2852H39.5722V34.8566H40.3579V41.1421H39.5722V42.7134H41.1435V43.4991H42.7149V42.7134H44.2863V43.4991H45.8577V42.6736C46.4159 42.5959 46.9365 42.3476 47.3482 41.9626C47.7599 41.5777 48.0425 41.075 48.1576 40.5232C48.2726 39.9715 48.2143 39.3977 47.9906 38.8803C47.7669 38.363 47.3888 37.9274 46.908 37.6333ZM41.9292 34.8566H44.6791C45.3302 34.8566 45.8577 35.3841 45.8577 36.0351C45.8577 36.6861 45.3302 37.2136 44.6791 37.2136H41.9292V34.8566ZM45.4648 41.1421H41.9292V38.785H45.4648C46.1159 38.785 46.6433 39.3125 46.6433 39.9635C46.6433 40.6146 46.1159 41.1421 45.4648 41.1421ZM49.0004 37.2136H50.5718V38.785H49.0004V37.2136ZM37.2151 37.2136H38.7865V38.785H37.2151V37.2136Z" fill="white"/>
</g>
<defs>
<filter id="filter0_b_2_481" x="-35" y="-35" width="146" height="146" filterUnits="userSpaceOnUse" color-interpolation-filters="sRGB">
<feFlood flood-opacity="0" result="BackgroundImageFix"/>
<feGaussianBlur in="BackgroundImageFix" stdDeviation="17.5"/>
<feComposite in2="SourceAlpha" operator="in" result="effect1_backgroundBlur_2_481"/>
<feBlend mode="normal" in="SourceGraphic" in2="effect1_backgroundBlur_2_481" result="shape"/>
</filter>
<linearGradient id="paint0_linear_2_481" x1="38" y1="0" x2="38" y2="76" gradientUnits="userSpaceOnUse">
<stop stop-color="#FFC700"/>
<stop offset="1" stop-color="#662E9E"/>
</linearGradient>
<clipPath id="clip0_2_481">
<rect width="44" height="44" fill="white" transform="translate(16 16)"/>
</clipPath>
</defs>
</svg>
