<svg width="76" height="76" viewBox="0 0 76 76" fill="none" xmlns="http://www.w3.org/2000/svg">
<g filter="url(#filter0_b_2_458)">
<rect width="76" height="76" rx="19" fill="url(#paint0_linear_2_458)"/>
</g>
<g clip-path="url(#clip0_2_458)">
<path d="M51.0659 44.6324C50.762 44.352 50.3829 44.1664 49.9751 44.0983C49.5673 44.0302 49.1484 44.0825 48.7699 44.2489C48.3914 44.4153 48.0697 44.6885 47.8442 45.0351C47.6186 45.3816 47.4991 45.7864 47.5002 46.1999V47.2335H44.9245C46.135 46.2188 47.107 44.9498 47.7712 43.5168C48.4355 42.0837 48.7757 40.5219 48.7677 38.9424C48.7596 37.3629 48.4035 35.8046 47.7247 34.3784C47.0459 32.9521 46.061 31.6931 44.8402 30.6908C45.2396 30.5803 45.5919 30.3423 45.8434 30.013C46.095 29.6837 46.232 29.2812 46.2336 28.8668V25.0668C46.2336 24.5629 46.0334 24.0796 45.6771 23.7233C45.3207 23.367 44.8375 23.1668 44.3336 23.1668H28.5002V22.1332C28.5015 21.7197 28.382 21.3148 28.1566 20.9682C27.9311 20.6215 27.6093 20.3482 27.2308 20.1817C26.8523 20.0153 26.4334 19.9629 26.0255 20.031C25.6176 20.0991 25.2385 20.2847 24.9346 20.5651L19.6849 25.3987C19.469 25.5989 19.2968 25.8415 19.179 26.1113C19.0613 26.3812 19.0005 26.6724 19.0005 26.9668C19.0005 27.2612 19.0613 27.5525 19.179 27.8223C19.2968 28.0921 19.469 28.3348 19.6849 28.535L24.9358 33.3686C25.324 33.7305 25.8346 33.9323 26.3653 33.9335C26.6619 33.9328 26.9553 33.8705 27.2266 33.7505C27.6075 33.5872 27.9316 33.3149 28.1582 32.968C28.3848 32.621 28.5038 32.2148 28.5002 31.8004V30.7668H31.0766C29.8662 31.7815 28.8942 33.0505 28.23 34.4835C27.5657 35.9165 27.2254 37.4783 27.2334 39.0578C27.2414 40.6373 27.5974 42.1956 28.2761 43.6218C28.9548 45.048 29.9396 46.3071 31.1602 47.3095C30.7608 47.42 30.4085 47.658 30.157 47.9873C29.9055 48.3166 29.7685 48.7191 29.7669 49.1335V52.9335C29.7669 53.4374 29.9671 53.9207 30.3234 54.277C30.6797 54.6333 31.163 54.8335 31.6669 54.8335H47.5002V55.8665C47.4964 56.2809 47.6151 56.6872 47.8415 57.0344C48.0679 57.3816 48.3918 57.6541 48.7726 57.8178C49.0439 57.9378 49.3372 58.0001 49.6339 58.0008C50.1657 57.9984 50.6769 57.7948 51.0646 57.4308L56.3143 52.5985C56.5302 52.3982 56.7024 52.1555 56.8202 51.8856C56.9379 51.6158 56.9987 51.3245 56.9987 51.03C56.9987 50.7356 56.9379 50.4443 56.8202 50.1744C56.7024 49.9045 56.5302 49.6618 56.3143 49.4616L51.0659 44.6324ZM27.8669 29.5002C27.6989 29.5002 27.5378 29.5669 27.4191 29.6857C27.3003 29.8044 27.2336 29.9655 27.2336 30.1335V31.7998C27.2339 31.9666 27.1855 32.1298 27.0945 32.2696C27.0035 32.4094 26.8738 32.5196 26.7211 32.5868C26.5684 32.654 26.3995 32.6752 26.235 32.6479C26.0704 32.6207 25.9174 32.546 25.7946 32.4331L20.5424 27.6002C20.4553 27.5187 20.3859 27.4202 20.3385 27.3109C20.291 27.2015 20.2666 27.0835 20.2666 26.9643C20.2666 26.8451 20.291 26.7271 20.3385 26.6177C20.3859 26.5084 20.4553 26.4099 20.5424 26.3284L25.7921 21.4942C25.915 21.3814 26.068 21.3068 26.2326 21.2796C26.3971 21.2523 26.566 21.2736 26.7187 21.3408C26.8714 21.4079 27.0012 21.5181 27.0923 21.6578C27.1833 21.7975 27.2318 21.9607 27.2317 22.1275V23.8002C27.2317 23.9681 27.2984 24.1292 27.4172 24.248C27.5359 24.3668 27.697 24.4335 27.865 24.4335H44.3336C44.5015 24.4335 44.6626 24.5002 44.7814 24.619C44.9002 24.7378 44.9669 24.8989 44.9669 25.0668V28.8668C44.9669 29.0348 44.9002 29.1959 44.7814 29.3147C44.6626 29.4334 44.5015 29.5002 44.3336 29.5002H43.058C41.502 28.6682 39.7647 28.2329 38.0002 28.2329C36.2357 28.2329 34.4985 28.6682 32.9424 29.5002H27.8669ZM28.5002 39.0002C28.5002 37.1212 29.0574 35.2845 30.1013 33.7222C31.1451 32.16 32.6288 30.9423 34.3647 30.2233C36.1006 29.5043 38.0108 29.3161 39.8536 29.6827C41.6964 30.0493 43.3891 30.954 44.7177 32.2826C46.0463 33.6112 46.9511 35.304 47.3177 37.1468C47.6842 38.9896 47.4961 40.8998 46.7771 42.6357C46.058 44.3716 44.8404 45.8553 43.2781 46.8991C41.7159 47.943 39.8791 48.5002 38.0002 48.5002C35.4815 48.4973 33.0668 47.4955 31.2859 45.7145C29.5049 43.9335 28.5031 41.5188 28.5002 39.0002ZM55.4574 51.67L50.2071 56.5036C50.0842 56.6174 49.9308 56.6927 49.7656 56.7203C49.6005 56.7478 49.4309 56.7265 49.2777 56.6588C49.1246 56.5911 48.9946 56.4801 48.9038 56.3394C48.8131 56.1987 48.7655 56.0345 48.7669 55.8671V54.2002C48.7669 54.0322 48.7002 53.8711 48.5814 53.7523C48.4626 53.6336 48.3015 53.5668 48.1336 53.5668H31.6669C31.4989 53.5668 31.3378 53.5001 31.2191 53.3813C31.1003 53.2626 31.0336 53.1015 31.0336 52.9335V49.1335C31.0336 48.9655 31.1003 48.8044 31.2191 48.6857C31.3378 48.5669 31.4989 48.5002 31.6669 48.5002H32.9431C34.4989 49.3321 36.2359 49.7674 38.0002 49.7674C39.7645 49.7674 41.5016 49.3321 43.0574 48.5002H48.1336C48.3015 48.5002 48.4626 48.4334 48.5814 48.3147C48.7002 48.1959 48.7669 48.0348 48.7669 47.8668V46.1999C48.7657 46.0327 48.8134 45.8688 48.9041 45.7284C48.9948 45.588 49.1246 45.4771 49.2775 45.4095C49.4304 45.3419 49.5997 45.3204 49.7647 45.3477C49.9296 45.3751 50.0829 45.45 50.2058 45.5634L55.4581 50.4002C55.5451 50.4817 55.6145 50.5802 55.662 50.6896C55.7094 50.7991 55.7339 50.9171 55.7339 51.0363C55.7339 51.1556 55.7094 51.2736 55.662 51.3831C55.6145 51.4925 55.5451 51.591 55.4581 51.6725L55.4574 51.67Z" fill="white"/>
<path d="M35.4669 42.1666C35.4669 41.9986 35.4001 41.8375 35.2814 41.7188C35.1626 41.6 35.0015 41.5333 34.8335 41.5333C34.6656 41.5333 34.5045 41.6 34.3857 41.7188C34.2669 41.8375 34.2002 41.9986 34.2002 42.1666C34.2019 43.0638 34.5206 43.9314 35.1 44.6164C35.6795 45.3013 36.4824 45.7593 37.3669 45.9096V46.5999C37.3669 46.7679 37.4336 46.929 37.5524 47.0478C37.6711 47.1665 37.8322 47.2333 38.0002 47.2333C38.1682 47.2333 38.3293 47.1665 38.448 47.0478C38.5668 46.929 38.6335 46.7679 38.6335 46.5999V45.9096C39.5186 45.7607 40.3223 45.3031 40.9019 44.6178C41.4815 43.9326 41.7996 43.0641 41.7996 42.1666C41.7996 41.2691 41.4815 40.4006 40.9019 39.7154C40.3223 39.0301 39.5186 38.5725 38.6335 38.4236V33.3899C39.1758 33.5299 39.6563 33.8456 40.0001 34.2877C40.3438 34.7297 40.5314 35.2733 40.5335 35.8333C40.5335 36.0012 40.6003 36.1623 40.719 36.2811C40.8378 36.3999 40.9989 36.4666 41.1669 36.4666C41.3348 36.4666 41.4959 36.3999 41.6147 36.2811C41.7335 36.1623 41.8002 36.0012 41.8002 35.8333C41.7985 34.9361 41.4798 34.0684 40.9004 33.3835C40.3209 32.6986 39.518 32.2405 38.6335 32.0903V31.3999C38.6335 31.232 38.5668 31.0709 38.448 30.9521C38.3293 30.8333 38.1682 30.7666 38.0002 30.7666C37.8322 30.7666 37.6711 30.8333 37.5524 30.9521C37.4336 31.0709 37.3669 31.232 37.3669 31.3999V32.0903C36.4818 32.2391 35.6781 32.6968 35.0985 33.382C34.5188 34.0673 34.2008 34.9358 34.2008 35.8333C34.2008 36.7308 34.5188 37.5992 35.0985 38.2845C35.6781 38.9697 36.4818 39.4274 37.3669 39.5763V44.61C36.8246 44.47 36.3441 44.1543 36.0003 43.7122C35.6566 43.2701 35.469 42.7266 35.4669 42.1666ZM40.5335 42.1666C40.5314 42.7266 40.3438 43.2701 40.0001 43.7122C39.6563 44.1543 39.1758 44.47 38.6335 44.61V39.7232C39.1758 39.8632 39.6563 40.1789 40.0001 40.621C40.3438 41.0631 40.5314 41.6066 40.5335 42.1666ZM35.4669 35.8333C35.469 35.2733 35.6566 34.7297 36.0003 34.2877C36.3441 33.8456 36.8246 33.5299 37.3669 33.3899V38.2767C36.8246 38.1367 36.3441 37.821 36.0003 37.3789C35.6566 36.9368 35.469 36.3933 35.4669 35.8333Z" fill="white"/>
</g>
<defs>
<filter id="filter0_b_2_458" x="-35" y="-35" width="146" height="146" filterUnits="userSpaceOnUse" color-interpolation-filters="sRGB">
<feFlood flood-opacity="0" result="BackgroundImageFix"/>
<feGaussianBlur in="BackgroundImageFix" stdDeviation="17.5"/>
<feComposite in2="SourceAlpha" operator="in" result="effect1_backgroundBlur_2_458"/>
<feBlend mode="normal" in="SourceGraphic" in2="effect1_backgroundBlur_2_458" result="shape"/>
</filter>
<linearGradient id="paint0_linear_2_458" x1="38" y1="0" x2="38" y2="76" gradientUnits="userSpaceOnUse">
<stop stop-color="#9747FF"/>
<stop offset="1" stop-color="#992B59"/>
</linearGradient>
<clipPath id="clip0_2_458">
<rect width="38" height="38" fill="white" transform="translate(19 20)"/>
</clipPath>
</defs>
</svg>
