<svg width="76" height="76" viewBox="0 0 76 76" fill="none" xmlns="http://www.w3.org/2000/svg">
<g filter="url(#filter0_b_2_517)">
<path d="M0 19C0 8.50659 8.50659 0 19 0H57C67.4934 0 76 8.50659 76 19V57C76 67.4934 67.4934 76 57 76H19C8.50659 76 0 67.4934 0 57V19Z" fill="url(#paint0_linear_2_517)"/>
</g>
<path d="M54.4998 35.7084H52.6665C52.3018 35.7084 51.9521 35.5635 51.6942 35.3057C51.4364 35.0478 51.2915 34.6981 51.2915 34.3334C51.2915 33.9687 51.4364 33.619 51.6942 33.3611C51.9521 33.1033 52.3018 32.9584 52.6665 32.9584H54.4998C54.621 32.957 54.7367 32.9082 54.8223 32.8226C54.908 32.7369 54.9567 32.6212 54.9582 32.5001V21.5001C54.9567 21.379 54.908 21.2632 54.8223 21.1776C54.7367 21.0919 54.621 21.0432 54.4998 21.0417H21.4998C21.3787 21.0432 21.263 21.0919 21.1773 21.1776C21.0917 21.2632 21.0429 21.379 21.0415 21.5001V32.5001C21.0429 32.6212 21.0917 32.7369 21.1773 32.8226C21.263 32.9082 21.3787 32.957 21.4998 32.9584H26.9998C27.3645 32.9584 27.7142 33.1033 27.9721 33.3611C28.23 33.619 28.3748 33.9687 28.3748 34.3334C28.3748 34.6981 28.23 35.0478 27.9721 35.3057C27.7142 35.5635 27.3645 35.7084 26.9998 35.7084H21.4998C20.6492 35.7074 19.8337 35.3691 19.2323 34.7676C18.6308 34.1662 18.2925 33.3507 18.2915 32.5001V21.5001C18.2925 20.6495 18.6308 19.834 19.2323 19.2325C19.8337 18.6311 20.6492 18.2927 21.4998 18.2917H54.4998C55.3504 18.2927 56.1659 18.6311 56.7674 19.2325C57.3689 19.834 57.7072 20.6495 57.7082 21.5001V32.5001C57.7072 33.3507 57.3689 34.1662 56.7674 34.7676C56.1659 35.3691 55.3504 35.7074 54.4998 35.7084Z" fill="white"/>
<path d="M47.1667 57.7083H28.8333C27.9827 57.7074 27.1672 57.369 26.5658 56.7676C25.9643 56.1661 25.626 55.3506 25.625 54.5V32.5C25.625 32.1353 25.7699 31.7856 26.0277 31.5277C26.2856 31.2699 26.6353 31.125 27 31.125C27.3647 31.125 27.7144 31.2699 27.9723 31.5277C28.2301 31.7856 28.375 32.1353 28.375 32.5V54.5C28.375 54.6216 28.4233 54.7381 28.5092 54.8241C28.5952 54.91 28.7118 54.9583 28.8333 54.9583H47.1667C47.2882 54.9583 47.4048 54.91 47.4908 54.8241C47.5767 54.7381 47.625 54.6216 47.625 54.5V28.375H27C26.6353 28.375 26.2856 28.2301 26.0277 27.9723C25.7699 27.7144 25.625 27.3647 25.625 27C25.625 26.6353 25.7699 26.2856 26.0277 26.0277C26.2856 25.7699 26.6353 25.625 27 25.625H49C49.3647 25.625 49.7144 25.7699 49.9723 26.0277C50.2301 26.2856 50.375 26.6353 50.375 27V54.5C50.374 55.3506 50.0357 56.1661 49.4342 56.7676C48.8328 57.369 48.0173 57.7074 47.1667 57.7083Z" fill="white"/>
<path d="M38 43.0417C37.1842 43.0417 36.3866 42.7998 35.7083 42.3466C35.0299 41.8933 34.5012 41.2491 34.189 40.4953C33.8768 39.7416 33.7951 38.9122 33.9543 38.112C34.1134 37.3118 34.5063 36.5768 35.0832 35.9999C35.6601 35.423 36.3951 35.0302 37.1953 34.871C37.9954 34.7118 38.8248 34.7935 39.5786 35.1057C40.3323 35.418 40.9766 35.9467 41.4298 36.625C41.8831 37.3034 42.125 38.1009 42.125 38.9168C42.125 39.2814 41.9801 39.6312 41.7223 39.889C41.4644 40.1469 41.1147 40.2918 40.75 40.2918C40.3853 40.2918 40.0356 40.1469 39.7777 39.889C39.5199 39.6312 39.375 39.2814 39.375 38.9168C39.375 38.6448 39.2944 38.379 39.1433 38.1528C38.9922 37.9267 38.7774 37.7505 38.5262 37.6464C38.2749 37.5423 37.9985 37.5151 37.7318 37.5682C37.465 37.6212 37.22 37.7522 37.0277 37.9445C36.8354 38.1368 36.7045 38.3818 36.6514 38.6485C36.5984 38.9152 36.6256 39.1917 36.7297 39.4429C36.8337 39.6942 37.01 39.9089 37.2361 40.06C37.4622 40.2111 37.7281 40.2918 38 40.2918C38.3647 40.2918 38.7144 40.4366 38.9723 40.6945C39.2301 40.9523 39.375 41.3021 39.375 41.6668C39.375 42.0314 39.2301 42.3812 38.9723 42.639C38.7144 42.8969 38.3647 43.0417 38 43.0417Z" fill="white"/>
<path d="M38 48.5418C36.9064 48.5404 35.8581 48.1053 35.0848 47.332C34.3115 46.5588 33.8765 45.5104 33.875 44.4168C33.875 44.0522 34.0199 43.7024 34.2777 43.4446C34.5356 43.1867 34.8853 43.0418 35.25 43.0418C35.6147 43.0418 35.9644 43.1867 36.2223 43.4446C36.4801 43.7024 36.625 44.0522 36.625 44.4168C36.625 44.6888 36.7056 44.9546 36.8567 45.1807C37.0078 45.4069 37.2226 45.5831 37.4738 45.6872C37.7251 45.7912 38.0015 45.8185 38.2682 45.7654C38.535 45.7124 38.78 45.5814 38.9723 45.3891C39.1646 45.1968 39.2955 44.9518 39.3486 44.6851C39.4016 44.4184 39.3744 44.1419 39.2703 43.8906C39.1663 43.6394 38.99 43.4246 38.7639 43.2736C38.5378 43.1225 38.2719 43.0418 38 43.0418C37.6353 43.0418 37.2856 42.897 37.0277 42.6391C36.7699 42.3812 36.625 42.0315 36.625 41.6668C36.625 41.3022 36.7699 40.9524 37.0277 40.6946C37.2856 40.4367 37.6353 40.2918 38 40.2918C39.094 40.2918 40.1432 40.7264 40.9168 41.5C41.6904 42.2736 42.125 43.3228 42.125 44.4168C42.125 45.5108 41.6904 46.5601 40.9168 47.3336C40.1432 48.1072 39.094 48.5418 38 48.5418ZM38 37.5418C37.6353 37.5418 37.2856 37.397 37.0277 37.1391C36.7699 36.8812 36.625 36.5315 36.625 36.1668V34.3335C36.625 33.9688 36.7699 33.6191 37.0277 33.3612C37.2856 33.1034 37.6353 32.9585 38 32.9585C38.3647 32.9585 38.7144 33.1034 38.9723 33.3612C39.2301 33.6191 39.375 33.9688 39.375 34.3335V36.1668C39.375 36.5315 39.2301 36.8812 38.9723 37.1391C38.7144 37.397 38.3647 37.5418 38 37.5418Z" fill="white"/>
<path d="M37.9998 50.375C37.6352 50.375 37.2854 50.2301 37.0276 49.9723C36.7697 49.7144 36.6248 49.3647 36.6248 49V47.1667C36.6248 46.802 36.7697 46.4523 37.0276 46.1944C37.2854 45.9365 37.6352 45.7917 37.9998 45.7917C38.3645 45.7917 38.7142 45.9365 38.9721 46.1944C39.23 46.4523 39.3748 46.802 39.3748 47.1667V49C39.3748 49.3647 39.23 49.7144 38.9721 49.9723C38.7142 50.2301 38.3645 50.375 37.9998 50.375ZM50.8332 28.375H25.1665C24.8018 28.375 24.4521 28.2301 24.1942 27.9723C23.9364 27.7144 23.7915 27.3647 23.7915 27C23.7915 26.6353 23.9364 26.2856 24.1942 26.0277C24.4521 25.7699 24.8018 25.625 25.1665 25.625H50.8332C51.1978 25.625 51.5476 25.7699 51.8054 26.0277C52.0633 26.2856 52.2082 26.6353 52.2082 27C52.2082 27.3647 52.0633 27.7144 51.8054 27.9723C51.5476 28.2301 51.1978 28.375 50.8332 28.375Z" fill="white"/>
<defs>
<filter id="filter0_b_2_517" x="-35" y="-35" width="146" height="146" filterUnits="userSpaceOnUse" color-interpolation-filters="sRGB">
<feFlood flood-opacity="0" result="BackgroundImageFix"/>
<feGaussianBlur in="BackgroundImageFix" stdDeviation="17.5"/>
<feComposite in2="SourceAlpha" operator="in" result="effect1_backgroundBlur_2_517"/>
<feBlend mode="normal" in="SourceGraphic" in2="effect1_backgroundBlur_2_517" result="shape"/>
</filter>
<linearGradient id="paint0_linear_2_517" x1="38" y1="0" x2="38" y2="76" gradientUnits="userSpaceOnUse">
<stop stop-color="#0047FF"/>
<stop offset="1" stop-color="#DDEFFF"/>
</linearGradient>
</defs>
</svg>
